<svg width="40" height="40" viewBox="0 0 40 40" fill="none" xmlns="http://www.w3.org/2000/svg">
<g clip-path="url(#clip0_48_203)">
<path d="M29.6667 21.3333H21.3333V29.6667C21.3333 30.5833 20.5833 31.3333 19.6667 31.3333C18.75 31.3333 18 30.5833 18 29.6667V21.3333H9.66667C8.75 21.3333 8 20.5833 8 19.6667C8 18.75 8.75 18 9.66667 18H18V9.66667C18 8.75 18.75 8 19.6667 8C20.5833 8 21.3333 8.75 21.3333 9.66667V18H29.6667C30.5833 18 31.3333 18.75 31.3333 19.6667C31.3333 20.5833 30.5833 21.3333 29.6667 21.3333Z" fill="#373737"/>
</g>
<defs>
<clipPath id="clip0_48_203">
<rect width="40" height="40" fill="white"/>
</clipPath>
</defs>
</svg>
