<svg width="33" height="34" viewBox="0 0 33 34" fill="none" xmlns="http://www.w3.org/2000/svg">
<path d="M28.7656 18.3C28.8322 17.7667 28.8822 17.2333 28.8822 16.6667C28.8822 16.1 28.8322 15.5667 28.7656 15.0333L32.2822 12.2833C32.5989 12.0333 32.6822 11.5833 32.4822 11.2167L29.1489 5.45C28.9489 5.08333 28.4989 4.95 28.1322 5.08333L23.9822 6.75C23.1156 6.08333 22.1822 5.53333 21.1656 5.11667L20.5322 0.7C20.4822 0.3 20.1322 0 19.7156 0H13.0489C12.6322 0 12.2822 0.3 12.2322 0.7L11.5989 5.11667C10.5822 5.53333 9.64891 6.1 8.78224 6.75L4.63224 5.08333C4.24891 4.93333 3.81557 5.08333 3.61557 5.45L0.28224 11.2167C0.065573 11.5833 0.165573 12.0333 0.48224 12.2833L3.99891 15.0333C3.93224 15.5667 3.88224 16.1167 3.88224 16.6667C3.88224 17.2167 3.93224 17.7667 3.99891 18.3L0.48224 21.05C0.165573 21.3 0.0822396 21.75 0.28224 22.1167L3.61557 27.8833C3.81557 28.25 4.26557 28.3833 4.63224 28.25L8.78224 26.5833C9.64891 27.25 10.5822 27.8 11.5989 28.2167L12.2322 32.6333C12.2822 33.0333 12.6322 33.3333 13.0489 33.3333H19.7156C20.1322 33.3333 20.4822 33.0333 20.5322 32.6333L21.1656 28.2167C22.1822 27.8 23.1156 27.2333 23.9822 26.5833L28.1322 28.25C28.5156 28.4 28.9489 28.25 29.1489 27.8833L32.4822 22.1167C32.6822 21.75 32.5989 21.3 32.2822 21.05L28.7656 18.3ZM16.3822 22.5C13.1656 22.5 10.5489 19.8833 10.5489 16.6667C10.5489 13.45 13.1656 10.8333 16.3822 10.8333C19.5989 10.8333 22.2156 13.45 22.2156 16.6667C22.2156 19.8833 19.5989 22.5 16.3822 22.5Z" fill="white"/>
</svg>
