<svg width="24" height="24" viewBox="0 0 24 24" fill="none" xmlns="http://www.w3.org/2000/svg">
<g clip-path="url(#clip0_202_953)">
<path d="M13.3083 3H5.66667C4.75 3 4 3.9 4 5V19C4 20.1 4.75 21 5.66667 21H17.3333C18.25 21 19 20.1 19 19V9.83C19 9.3 18.825 8.79 18.5083 8.42L14.4833 3.59C14.175 3.21 13.75 3 13.3083 3ZM8.16667 15H14.8333C15.2917 15 15.6667 15.45 15.6667 16C15.6667 16.55 15.2917 17 14.8333 17H8.16667C7.70833 17 7.33333 16.55 7.33333 16C7.33333 15.45 7.70833 15 8.16667 15ZM8.16667 11H14.8333C15.2917 11 15.6667 11.45 15.6667 12C15.6667 12.55 15.2917 13 14.8333 13H8.16667C7.70833 13 7.33333 12.55 7.33333 12C7.33333 11.45 7.70833 11 8.16667 11ZM8.16667 7H12.3333C12.7917 7 13.1667 7.45 13.1667 8C13.1667 8.55 12.7917 9 12.3333 9H8.16667C7.70833 9 7.33333 8.55 7.33333 8C7.33333 7.45 7.70833 7 8.16667 7Z" fill="#B5B5B5"/>
</g>
<defs>
<clipPath id="clip0_202_953">
<rect width="24" height="24" fill="white"/>
</clipPath>
</defs>
</svg>
