<svg width="30" height="31" viewBox="0 0 30 31" fill="none" xmlns="http://www.w3.org/2000/svg">
<path d="M16.6667 5.68749L19.8 8.82082C20.45 9.47082 21.5 9.47082 22.15 8.82082C22.8 8.17082 22.8 7.12082 22.15 6.47082L16.1667 0.487488C15.5167 -0.162512 14.4667 -0.162512 13.8167 0.487488L7.83333 6.47082C7.18333 7.12082 7.18333 8.17082 7.83333 8.82082C8.48333 9.47082 9.53333 9.47082 10.1833 8.82082L13.3333 5.68749L13.3333 19.3208C13.3333 20.2375 14.0833 20.9875 14.9999 20.9875C15.9166 20.9875 16.6666 20.2375 16.6666 19.3208L16.6667 5.68749Z" fill="white"/>
<path d="M26.6667 25.0034C26.6667 25.9201 25.9167 26.6701 25 26.6701H5C4.08333 26.6701 3.33333 25.9201 3.33333 25.0034V17.6666C3.33333 16.9206 3.93808 16.3159 4.68407 16.3159H6.4074C7.37389 16.3159 8.15739 15.5324 8.15739 14.5659C8.15739 13.5994 7.37389 12.8159 6.4074 12.8159H3C1.34315 12.8159 8.29202e-06 14.1591 1.92222e-06 15.8159L0 16.3159V26.6701C0 28.5034 1.5 30.0034 3.33333 30.0034H26.6667C28.5 30.0034 30 28.5034 30 26.6701V15.8159C30 14.1591 28.6569 12.8159 27 12.8159H23.5926C22.6261 12.8159 21.8426 13.5994 21.8426 14.5659C21.8426 15.5324 22.6261 16.3159 23.5926 16.3159H25.6667C26.219 16.3159 26.6667 16.7636 26.6667 17.3159V25.0034Z" fill="white"/>
</svg>
