<svg width="31" height="30" viewBox="0 0 31 30" fill="none" xmlns="http://www.w3.org/2000/svg">
<path d="M27 16.6667V25C27 25.9167 26.25 26.6667 25.3333 26.6667H5.33331C4.41665 26.6667 3.66665 25.9167 3.66665 25V16.6667C3.66665 15.75 2.91665 15 1.99998 15C1.08331 15 0.333313 15.75 0.333313 16.6667V26.6667C0.333313 28.5 1.83331 30 3.66665 30H27C28.8333 30 30.3333 28.5 30.3333 26.6667V16.6667C30.3333 15.75 29.5833 15 28.6666 15C27.75 15 27 15.75 27 16.6667ZM17 16.1167L20.1333 12.9833C20.7833 12.3333 21.8333 12.3333 22.4833 12.9833C23.1333 13.6333 23.1333 14.6833 22.4833 15.3333L16.5 21.3167C15.85 21.9667 14.8 21.9667 14.15 21.3167L8.16665 15.3333C7.51665 14.6833 7.51665 13.6333 8.16665 12.9833C8.81665 12.3333 9.86665 12.3333 10.5166 12.9833L13.6666 16.1167V1.66667C13.6666 0.75 14.4166 0 15.3333 0C16.25 0 17 0.75 17 1.66667V16.1167Z" fill="white"/>
</svg>
