<svg width="28" height="31" viewBox="0 0 28 31" fill="none" xmlns="http://www.w3.org/2000/svg">
<path d="M14.9708 25.9C14.3708 26.3667 13.5208 26.3667 12.9208 25.9L2.67083 17.9333C2.07083 17.4667 1.2375 17.4667 0.6375 17.9333C-0.2125 18.6 -0.2125 19.8833 0.6375 20.55L11.9042 29.3167C13.1042 30.25 14.7875 30.25 16.0042 29.3167L27.2708 20.55C28.1208 19.8833 28.1208 18.6 27.2708 17.9333L27.2542 17.9167C26.6542 17.45 25.8208 17.45 25.2208 17.9167L14.9708 25.9V25.9ZM16.0208 20.8667L27.2875 12.1C28.1375 11.4333 28.1375 10.1333 27.2875 9.46667L16.0208 0.7C14.8208 -0.233333 13.1375 -0.233333 11.9208 0.7L0.654167 9.48333C-0.195833 10.15 -0.195833 11.45 0.654167 12.1167L11.9208 20.8833C13.1208 21.8167 14.8208 21.8167 16.0208 20.8667V20.8667Z" fill="#373737"/>
</svg>
