<svg width="31" height="20" viewBox="0 0 31 20" fill="none" xmlns="http://www.w3.org/2000/svg">
<path d="M2.16667 20H28.8333C29.75 20 30.5 19.25 30.5 18.3333C30.5 17.4167 29.75 16.6667 28.8333 16.6667H2.16667C1.25 16.6667 0.5 17.4167 0.5 18.3333C0.5 19.25 1.25 20 2.16667 20ZM2.16667 11.6667H28.8333C29.75 11.6667 30.5 10.9167 30.5 10C30.5 9.08333 29.75 8.33333 28.8333 8.33333H2.16667C1.25 8.33333 0.5 9.08333 0.5 10C0.5 10.9167 1.25 11.6667 2.16667 11.6667ZM0.5 1.66667C0.5 2.58333 1.25 3.33333 2.16667 3.33333H28.8333C29.75 3.33333 30.5 2.58333 30.5 1.66667C30.5 0.75 29.75 0 28.8333 0H2.16667C1.25 0 0.5 0.75 0.5 1.66667Z" fill="white"/>
</svg>
