<svg width="30" height="30" viewBox="0 0 30 30" fill="none" xmlns="http://www.w3.org/2000/svg">
<path d="M26.6667 16.6667V25C26.6667 25.9167 25.9167 26.6667 25 26.6667H5C4.08333 26.6667 3.33333 25.9167 3.33333 25V16.6667C3.33333 15.75 2.58333 15 1.66667 15C0.75 15 0 15.75 0 16.6667V26.6667C0 28.5 1.5 30 3.33333 30H26.6667C28.5 30 30 28.5 30 26.6667V16.6667C30 15.75 29.25 15 28.3333 15C27.4167 15 26.6667 15.75 26.6667 16.6667ZM16.6667 16.1167L19.8 12.9833C20.45 12.3333 21.5 12.3333 22.15 12.9833C22.8 13.6333 22.8 14.6833 22.15 15.3333L16.1667 21.3167C15.5167 21.9667 14.4667 21.9667 13.8167 21.3167L7.83333 15.3333C7.18333 14.6833 7.18333 13.6333 7.83333 12.9833C8.48333 12.3333 9.53333 12.3333 10.1833 12.9833L13.3333 16.1167V1.66667C13.3333 0.75 14.0833 0 15 0C15.9167 0 16.6667 0.75 16.6667 1.66667V16.1167Z" fill="#242729"/>
</svg>
