<svg width="29" height="29" viewBox="0 0 29 29" fill="none" xmlns="http://www.w3.org/2000/svg">
<path d="M20.8344 18.3344H19.5177L19.051 17.8844C21.051 15.551 22.0844 12.3677 21.5177 8.98438C20.7344 4.35104 16.8677 0.651043 12.201 0.084376C5.15104 -0.782291 -0.782291 5.15104 0.084376 12.201C0.651043 16.8677 4.35104 20.7344 8.98438 21.5177C12.3677 22.0844 15.551 21.051 17.8844 19.051L18.3344 19.5177V20.8344L25.4177 27.9177C26.101 28.601 27.2177 28.601 27.901 27.9177C28.5844 27.2344 28.5844 26.1177 27.901 25.4344L20.8344 18.3344ZM10.8344 18.3344C6.68438 18.3344 3.33438 14.9844 3.33438 10.8344C3.33438 6.68438 6.68438 3.33438 10.8344 3.33438C14.9844 3.33438 18.3344 6.68438 18.3344 10.8344C18.3344 14.9844 14.9844 18.3344 10.8344 18.3344Z" fill="#373737"/>
</svg>
