<svg width="40" height="40" viewBox="0 0 40 40" fill="none" xmlns="http://www.w3.org/2000/svg">
<g clip-path="url(#clip0_48_219)">
<path d="M32.5989 21.3C32.6656 20.7667 32.7156 20.2333 32.7156 19.6667C32.7156 19.1 32.6656 18.5667 32.5989 18.0333L36.1156 15.2833C36.4322 15.0333 36.5156 14.5833 36.3156 14.2167L32.9822 8.45C32.7822 8.08333 32.3322 7.95 31.9656 8.08333L27.8156 9.75C26.9489 9.08333 26.0156 8.53333 24.9989 8.11667L24.3656 3.7C24.3156 3.3 23.9656 3 23.5489 3H16.8822C16.4656 3 16.1156 3.3 16.0656 3.7L15.4322 8.11667C14.4156 8.53333 13.4822 9.1 12.6156 9.75L8.46555 8.08333C8.08222 7.93333 7.64889 8.08333 7.44889 8.45L4.11555 14.2167C3.89889 14.5833 3.99889 15.0333 4.31555 15.2833L7.83222 18.0333C7.76555 18.5667 7.71555 19.1167 7.71555 19.6667C7.71555 20.2167 7.76555 20.7667 7.83222 21.3L4.31555 24.05C3.99889 24.3 3.91555 24.75 4.11555 25.1167L7.44889 30.8833C7.64889 31.25 8.09889 31.3833 8.46555 31.25L12.6156 29.5833C13.4822 30.25 14.4156 30.8 15.4322 31.2167L16.0656 35.6333C16.1156 36.0333 16.4656 36.3333 16.8822 36.3333H23.5489C23.9656 36.3333 24.3156 36.0333 24.3656 35.6333L24.9989 31.2167C26.0156 30.8 26.9489 30.2333 27.8156 29.5833L31.9656 31.25C32.3489 31.4 32.7822 31.25 32.9822 30.8833L36.3156 25.1167C36.5156 24.75 36.4322 24.3 36.1156 24.05L32.5989 21.3ZM20.2156 25.5C16.9989 25.5 14.3822 22.8833 14.3822 19.6667C14.3822 16.45 16.9989 13.8333 20.2156 13.8333C23.4322 13.8333 26.0489 16.45 26.0489 19.6667C26.0489 22.8833 23.4322 25.5 20.2156 25.5Z" fill="#373737"/>
</g>
<defs>
<clipPath id="clip0_48_219">
<rect width="40" height="40" fill="white"/>
</clipPath>
</defs>
</svg>
