<svg width="46" height="47" viewBox="0 0 46 47" fill="none" xmlns="http://www.w3.org/2000/svg">
<g clip-path="url(#clip0_48_207)" filter="url(#filter0_d_48_207)">
<path d="M26.8688 2.32236L5.65561 23.5356C4.35924 24.8319 4.35924 26.9532 5.65561 28.2496L15.0837 37.6777C16.3801 38.9741 18.5014 38.9741 19.7977 37.6777L41.0109 16.4645C42.3073 15.1681 42.3073 13.0468 41.0109 11.7504L31.5829 2.32235C30.2865 1.02599 28.1652 1.02599 26.8688 2.32236ZM37.4754 15.286L18.6192 34.1422C17.971 34.7903 16.9104 34.7903 16.2622 34.1422L9.19114 27.0711C8.54296 26.4229 8.54296 25.3622 9.19114 24.7141L10.3697 23.5356L13.9052 27.0711C14.5534 27.7193 15.614 27.7193 16.2622 27.0711C16.9104 26.4229 16.9104 25.3622 16.2622 24.7141L12.7267 21.1785L15.0837 18.8215L18.6192 22.357C19.2674 23.0052 20.3281 23.0052 20.9763 22.357C21.6244 21.7089 21.6244 20.6482 20.9763 20L17.4407 16.4645L19.7977 14.1075L23.3333 17.643C23.9815 18.2912 25.0421 18.2912 25.6903 17.643C26.3385 16.9948 26.3385 15.9342 25.6903 15.286L22.1548 11.7504L24.5118 9.39342L28.0473 12.929C28.6955 13.5771 29.7562 13.5771 30.4043 12.929C31.0525 12.2808 31.0525 11.2201 30.4043 10.5719L26.8688 7.0364L28.0473 5.85789C28.6955 5.20971 29.7562 5.20971 30.4043 5.85789L37.4754 12.929C38.1236 13.5771 38.1236 14.6378 37.4754 15.286Z" fill="#373737"/>
</g>
<defs>
<filter id="filter0_d_48_207" x="-1" y="0" width="48" height="48" filterUnits="userSpaceOnUse" color-interpolation-filters="sRGB">
<feFlood flood-opacity="0" result="BackgroundImageFix"/>
<feColorMatrix in="SourceAlpha" type="matrix" values="0 0 0 0 0 0 0 0 0 0 0 0 0 0 0 0 0 0 127 0" result="hardAlpha"/>
<feOffset dy="4"/>
<feGaussianBlur stdDeviation="2"/>
<feComposite in2="hardAlpha" operator="out"/>
<feColorMatrix type="matrix" values="0 0 0 0 0 0 0 0 0 0 0 0 0 0 0 0 0 0 0.25 0"/>
<feBlend mode="normal" in2="BackgroundImageFix" result="effect1_dropShadow_48_207"/>
<feBlend mode="normal" in="SourceGraphic" in2="effect1_dropShadow_48_207" result="shape"/>
</filter>
<clipPath id="clip0_48_207">
<rect width="40" height="40" fill="white" transform="translate(3)"/>
</clipPath>
</defs>
</svg>
